<svg width="90" height="29" viewBox="0 0 90 29" fill="none" xmlns="http://www.w3.org/2000/svg">
<path d="M0.6 28.2671V0.347089H18.2V3.26709H3.96V12.6671H17V15.5871H3.96V28.2671H0.6ZM27.9444 28.2671H24.5844V0.347089H34.7444C37.331 0.347089 39.3044 1.05376 40.6644 2.46709C42.0244 3.88042 42.7044 5.85376 42.7044 8.38709C42.7044 10.6538 42.1177 12.4671 40.9444 13.8271C39.771 15.1871 38.0644 15.9738 35.8244 16.1871L42.9444 28.2671H39.1844L32.3844 16.3471H27.9444V28.2671ZM34.6644 13.5071C36.0777 13.5071 37.171 13.1604 37.9444 12.4671C38.7444 11.7471 39.1444 10.7338 39.1444 9.42709V7.34709C39.1444 6.04042 38.7444 5.04042 37.9444 4.34709C37.171 3.62709 36.0777 3.26709 34.6644 3.26709H27.9444V13.5071H34.6644ZM48.5688 28.2671V0.347089H65.7688V3.26709H51.9288V12.6671H65.2888V15.5871H51.9288V25.3471H65.7688V28.2671H48.5688ZM72.5531 28.2671V0.347089H89.7531V3.26709H75.9131V12.6671H89.2731V15.5871H75.9131V25.3471H89.7531V28.2671H72.5531Z" fill="url(#paint0_linear)"/>
<defs>
<linearGradient id="paint0_linear" x1="97.0578" y1="-8.70169" x2="33.8166" y2="82.853" gradientUnits="userSpaceOnUse">
<stop stop-color="#FF7144" stop-opacity="0.01"/>
<stop offset="0.0949252" stop-color="#FF8979"/>
<stop offset="0.239409" stop-color="#FF4DCA"/>
<stop offset="0.442535" stop-color="#E930FF"/>
<stop offset="0.940665" stop-color="#E44D88"/>
<stop offset="0.970958" stop-color="#E34E81" stop-opacity="0.594203"/>
<stop offset="1" stop-color="#E3507A" stop-opacity="0.01"/>
</linearGradient>
</defs>
</svg>
