<svg width="67" height="29" viewBox="0 0 67 29" fill="none" xmlns="http://www.w3.org/2000/svg">
<path d="M0.026758 28.4265V0.506513H10.1868C12.7734 0.506513 14.7468 1.21318 16.1068 2.62651C17.4668 4.03985 18.1468 6.01318 18.1468 8.54651C18.1468 11.0798 17.4668 13.0532 16.1068 14.4665C14.7468 15.8798 12.7734 16.5865 10.1868 16.5865H3.38676V28.4265H0.026758ZM3.38676 13.6665H10.1068C11.5201 13.6665 12.6134 13.3198 13.3868 12.6265C14.1868 11.9065 14.5868 10.8932 14.5868 9.58651V7.50651C14.5868 6.19985 14.1868 5.19985 13.3868 4.50651C12.6134 3.78651 11.5201 3.42651 10.1068 3.42651H3.38676V13.6665ZM27.3711 28.4265H24.0111V0.506513H34.1711C36.7578 0.506513 38.7311 1.21318 40.0911 2.62651C41.4511 4.03985 42.1311 6.01318 42.1311 8.54651C42.1311 10.8132 41.5445 12.6265 40.3711 13.9865C39.1978 15.3465 37.4911 16.1332 35.2511 16.3465L42.3711 28.4265H38.6111L31.8111 16.5065H27.3711V28.4265ZM34.0911 13.6665C35.5045 13.6665 36.5978 13.3198 37.3711 12.6265C38.1711 11.9065 38.5711 10.8932 38.5711 9.58651V7.50651C38.5711 6.19985 38.1711 5.19985 37.3711 4.50651C36.5978 3.78651 35.5045 3.42651 34.0911 3.42651H27.3711V13.6665H34.0911ZM56.3955 28.9065C54.6888 28.9065 53.2222 28.5865 51.9955 27.9465C50.7688 27.2798 49.7555 26.3332 48.9555 25.1065C48.1555 23.8798 47.5688 22.3732 47.1955 20.5865C46.8222 18.7998 46.6355 16.7598 46.6355 14.4665C46.6355 12.1998 46.8222 10.1732 47.1955 8.38651C47.5688 6.57318 48.1555 5.05318 48.9555 3.82651C49.7555 2.59985 50.7688 1.66651 51.9955 1.02651C53.2222 0.359845 54.6888 0.0265121 56.3955 0.0265121C58.1022 0.0265121 59.5688 0.359845 60.7955 1.02651C62.0222 1.66651 63.0355 2.59985 63.8355 3.82651C64.6355 5.05318 65.2222 6.57318 65.5955 8.38651C65.9688 10.1732 66.1555 12.1998 66.1555 14.4665C66.1555 16.7598 65.9688 18.7998 65.5955 20.5865C65.2222 22.3732 64.6355 23.8798 63.8355 25.1065C63.0355 26.3332 62.0222 27.2798 60.7955 27.9465C59.5688 28.5865 58.1022 28.9065 56.3955 28.9065ZM56.3955 25.9865C57.5155 25.9865 58.4622 25.7732 59.2355 25.3465C60.0088 24.8932 60.6488 24.2665 61.1555 23.4665C61.6622 22.6665 62.0222 21.7065 62.2355 20.5865C62.4755 19.4398 62.5955 18.1598 62.5955 16.7465V12.1865C62.5955 10.7998 62.4755 9.53318 62.2355 8.38651C62.0222 7.23985 61.6622 6.26651 61.1555 5.46651C60.6488 4.66651 60.0088 4.05318 59.2355 3.62651C58.4622 3.17318 57.5155 2.94651 56.3955 2.94651C55.2755 2.94651 54.3288 3.17318 53.5555 3.62651C52.7822 4.05318 52.1422 4.66651 51.6355 5.46651C51.1288 6.26651 50.7555 7.23985 50.5155 8.38651C50.3022 9.53318 50.1955 10.7998 50.1955 12.1865V16.7465C50.1955 18.1598 50.3022 19.4398 50.5155 20.5865C50.7555 21.7065 51.1288 22.6665 51.6355 23.4665C52.1422 24.2665 52.7822 24.8932 53.5555 25.3465C54.3288 25.7732 55.2755 25.9865 56.3955 25.9865Z" fill="url(#paint0_linear)"/>
<defs>
<linearGradient id="paint0_linear" x1="29.0409" y1="65.4265" x2="79.9808" y2="1.52806" gradientUnits="userSpaceOnUse">
<stop stop-color="#45AFEE" stop-opacity="0.01"/>
<stop offset="0.0375866" stop-color="#43B1EC" stop-opacity="0.615533"/>
<stop offset="0.0805049" stop-color="#41B3E9" stop-opacity="0.767526"/>
<stop offset="0.146149" stop-color="#3EB7E5"/>
<stop offset="0.747659" stop-color="#23DBBD"/>
<stop offset="0.842081" stop-color="#1EE0B7" stop-opacity="0.852977"/>
<stop offset="0.896184" stop-color="#1CE4B3" stop-opacity="0.768733"/>
<stop offset="0.927591" stop-color="#1BE5B1" stop-opacity="0.144475"/>
<stop offset="1" stop-color="#17EAAC" stop-opacity="0.01"/>
</linearGradient>
</defs>
</svg>
